<svg width="19" height="19" viewBox="0 0 19 19" fill="none" xmlns="http://www.w3.org/2000/svg">
<path d="M0 9.5C0 7.77733 0.424346 6.18767 1.273 4.731C2.12167 3.27433 3.27435 2.12167 4.731 1.273C6.18767 0.424327 7.77735 0 9.5 0C11.2227 0 12.8123 0.424327 14.269 1.273C15.7257 2.12167 16.8783 3.27433 17.727 4.731C18.5757 6.18767 19 7.77733 19 9.5C19 11.2227 18.5757 12.8123 17.727 14.269C16.8783 15.7257 15.7257 16.8783 14.269 17.727C12.8123 18.5757 11.2227 19 9.5 19C7.77735 19 6.18767 18.5757 4.731 17.727C3.27435 16.8783 2.12167 15.7257 1.273 14.269C0.424346 12.8123 0 11.2227 0 9.5ZM1.577 9.5C1.577 11.476 2.242 13.2177 3.572 14.725C4.18 13.5343 5.14267 12.4007 6.46 11.324C7.77735 10.2473 9.063 9.56967 10.317 9.291C10.127 8.84767 9.94335 8.44867 9.766 8.094C7.58735 8.79067 5.23135 9.139 2.698 9.139C2.204 9.139 1.83667 9.13267 1.596 9.12C1.596 9.17067 1.59285 9.234 1.5865 9.31C1.58017 9.386 1.577 9.44933 1.577 9.5ZM1.824 7.543C2.10267 7.56833 2.51435 7.581 3.059 7.581C5.17435 7.581 7.182 7.296 9.082 6.726C8.11935 5.016 7.06167 3.591 5.909 2.451C4.90835 2.95767 4.05017 3.66067 3.3345 4.56C2.61885 5.45933 2.11535 6.45367 1.824 7.543ZM4.655 15.751C6.08635 16.8657 7.70135 17.423 9.5 17.423C10.4373 17.423 11.3683 17.2457 12.293 16.891C12.0397 14.725 11.5457 12.6287 10.811 10.602C9.64567 10.8553 8.47085 11.495 7.2865 12.521C6.10217 13.547 5.225 14.6237 4.655 15.751ZM7.562 1.843C8.67667 2.99567 9.709 4.43333 10.659 6.156C12.3817 5.434 13.68 4.51567 14.554 3.401C13.0847 2.185 11.4 1.577 9.5 1.577C8.854 1.577 8.208 1.66567 7.562 1.843ZM11.343 7.505C11.533 7.91033 11.7483 8.42333 11.989 9.044C12.9263 8.95533 13.946 8.911 15.048 8.911C15.8333 8.911 16.6123 8.93 17.385 8.968C17.2837 7.24533 16.663 5.71267 15.523 4.37C14.6997 5.59867 13.3063 6.64367 11.343 7.505ZM12.464 10.374C13.11 12.2487 13.547 14.174 13.775 16.15C14.7757 15.504 15.5927 14.6743 16.226 13.661C16.8593 12.6477 17.2393 11.552 17.366 10.374C16.4413 10.3107 15.599 10.279 14.839 10.279C14.1423 10.279 13.3507 10.3107 12.464 10.374Z" fill="#D85888"/>
</svg>
