<svg width="1366" height="588" viewBox="0 0 1366 588" fill="none" xmlns="http://www.w3.org/2000/svg">
<g clip-path="url(#clip0_1377_1240)">
<path d="M1126.6 457.131C1060.18 551.487 867.653 610.798 744.296 536.664C742.726 535.725 741.172 534.773 739.635 533.811C684.38 500.275 642.528 448.254 621.361 386.8L620.738 382.046L618.213 363.878C618.213 363.878 607.477 304.143 593.256 245.461C589.756 226.529 587.012 211.824 587.012 211.824C586.126 208.679 585.441 205.481 584.96 202.248C582.291 187.053 583.715 171.414 589.083 156.963C598.773 138.877 614.82 125.103 634.067 118.35L634.319 118.249C645.258 114.514 656.715 112.548 668.263 112.424H668.465C680.382 112.262 692.171 114.92 702.886 120.187C713.6 125.453 722.942 133.182 730.16 142.75C736.415 153.058 740.723 164.446 742.866 176.337C742.866 176.337 746.232 189.089 750.624 206.102C762.775 267.382 779.52 330.411 779.52 330.411L784.939 347.934L786.217 352.026L791.72 369.498C791.72 369.498 810.704 422.136 889.329 418.027C967.954 413.918 990.992 361.415 996.428 347.934C1000.53 327.416 1000.06 306.238 995.065 285.924L966.607 148.388C966.607 148.388 947.624 76.9545 988.3 44.6081C1028.98 12.2616 1107.6 19.0027 1125.22 78.296C1142.84 137.589 1161.82 245.445 1161.82 245.445C1161.82 245.445 1192.96 362.774 1126.6 457.131Z" fill="#2B2B2B" fill-opacity="0.6"/>
<path d="M739.634 535.612L737.851 538.277C657.071 656.728 456.907 682.724 356.421 624.636C255.935 566.548 234.495 447.181 234.495 447.181C234.495 447.181 205.886 341.448 196.815 280.304C187.744 219.16 256.289 180.429 307.011 192.926C357.734 205.423 370.81 278.131 370.81 278.131L403.307 414.732C407.427 435.316 416.001 454.728 428.416 471.581C439.068 481.565 482.269 519.718 555.559 490.785C628.849 461.851 623.716 406.26 623.716 406.26L621.36 388.635L620.737 383.88L618.23 365.729C618.23 365.729 607.493 305.994 593.273 247.329C589.772 228.397 587.029 213.709 587.029 213.709C586.143 210.565 585.457 207.365 584.976 204.132C582.306 188.937 583.73 173.297 589.099 158.847C598.79 140.762 614.836 126.988 634.083 120.236L634.335 120.134C645.274 116.397 656.731 114.431 668.279 114.31H668.481C680.403 114.146 692.196 116.807 702.914 122.076C713.632 127.346 722.975 135.078 730.193 144.652C736.446 154.955 740.754 166.336 742.899 178.221C742.899 178.221 746.265 190.991 750.657 207.988C762.808 269.251 779.553 332.278 779.553 332.278L784.972 349.802L786.251 353.877C792.516 418.112 775.998 482.508 739.634 535.612Z" fill="#2B2B2B" fill-opacity="0.6"/>
<path d="M676.475 250.556C635.413 259.98 595.696 240.215 584.96 206.068C582.292 190.547 583.714 174.591 589.083 159.799C598.652 141.427 614.705 127.347 634.067 120.338L634.319 120.236C638.223 118.763 642.22 117.555 646.284 116.62C653.491 114.956 660.87 114.169 668.263 114.277H668.465C680.449 114.156 692.29 116.906 703.016 122.302C713.741 127.698 723.044 135.586 730.16 145.316C733.459 150.163 736.022 155.479 737.767 161.089C738.255 162.617 738.676 164.197 739.046 165.776C747.393 202.758 719.389 240.708 676.475 250.556Z" fill="#2B2B2B" fill-opacity="0.6"/>
</g>
<defs>
<clipPath id="clip0_1377_1240">
<rect width="1366" height="588" fill="white"/>
</clipPath>
</defs>
</svg>
