<svg width="60" height="60" viewBox="0 0 60 60" fill="none" xmlns="http://www.w3.org/2000/svg">
<rect width="60" height="60" rx="8" fill="#00529C"/>
<path fill-rule="evenodd" clip-rule="evenodd" d="M44.122 12.5L49.1317 12.5054L49.1262 31.5909H44.1152L44.122 12.5Z" fill="white"/>
<mask id="mask0_1364_1211" style="mask-type:luminance" maskUnits="userSpaceOnUse" x="9" y="12" width="16" height="21">
<path fill-rule="evenodd" clip-rule="evenodd" d="M9 12.6144H24.7722V32.013H9V12.6144Z" fill="white"/>
</mask>
<g mask="url(#mask0_1364_1211)">
<path fill-rule="evenodd" clip-rule="evenodd" d="M16.8113 28.2591H14.1908V23.6721H16.8006C18.0781 23.6734 19.6846 24.218 19.7068 25.8225C19.7365 27.7682 18.1578 28.2633 16.8113 28.2591V28.2591ZM14.2137 16.1026H16.4842C17.541 16.1026 19.0395 16.197 19.1344 18.1688C19.2013 19.6233 17.4943 20.2259 16.4228 20.2241L14.1928 20.2259L14.2137 16.1026ZM20.9546 21.8741C22.4365 21.2788 24.26 20.499 24.2005 17.4447C24.1378 14.0088 21.0823 12.6162 18.6346 12.6144H9.00638L9 32.0088L17.8757 32.013C18.2539 32.0088 19.0192 31.9226 20.1779 31.7466C22.6755 31.3712 24.7817 29.129 24.7722 26.4933C24.7609 23.8895 22.962 22.4365 20.9546 21.8741V21.8741Z" fill="white"/>
</g>
<path fill-rule="evenodd" clip-rule="evenodd" d="M33.95 20.4801L31.1925 20.4772L31.1962 16.0179H34.0507C35.4371 16.0179 36.4643 17.1158 36.4643 18.3665C36.4643 19.7844 35.346 20.4801 33.95 20.4801M37.9314 22.1107C40.4179 21.522 41.624 19.7093 41.4936 17.3806C41.2686 13.3984 39.1351 12.6257 35.3035 12.6257L25.9403 12.6199L25.9365 32.0163L31.1906 32.0198V24.148C31.9849 24.1441 33.2385 24.1041 33.866 24.5732C35.6254 25.8971 36.5053 30.1208 37.4674 32.0198H42.4683C41.7826 30.5949 40.0022 22.8543 37.9314 22.1107" fill="white"/>
<mask id="mask1_1364_1211" style="mask-type:luminance" maskUnits="userSpaceOnUse" x="38" y="35" width="13" height="13">
<path fill-rule="evenodd" clip-rule="evenodd" d="M38.8921 35.2768H50.9998V47.5H38.8921V35.2768Z" fill="white"/>
</mask>
<g mask="url(#mask1_1364_1211)">
<path fill-rule="evenodd" clip-rule="evenodd" d="M44.946 44.2523C43.3792 44.2523 42.1092 42.9701 42.1092 41.3884C42.1092 39.8066 43.3792 38.5243 44.946 38.5243C46.5129 38.5243 47.783 39.8066 47.783 41.3884C47.783 42.9701 46.5129 44.2523 44.946 44.2523M44.9459 35.2768C41.6024 35.2768 38.8921 38.013 38.8921 41.3884C38.8921 44.7637 41.6026 47.5001 44.946 47.5001C48.2893 47.5001 50.9998 44.7637 50.9998 41.3884C50.9998 38.013 48.2893 35.2768 44.9459 35.2768" fill="#F87304"/>
</g>
<path fill-rule="evenodd" clip-rule="evenodd" d="M37.4599 41.3847C37.4579 38.011 34.7485 35.2767 31.4061 35.2767C29.6486 35.2767 28.0668 36.0336 26.9607 37.2412C25.8548 36.0336 24.2729 35.2767 22.5152 35.2767C19.1731 35.2767 16.4635 38.011 16.4615 41.3847H16.4614V47.1488H19.6783V41.3884C19.6783 39.8067 20.9485 38.5243 22.5152 38.5243C24.0821 38.5243 25.3523 39.8067 25.3523 41.3884V47.1488H28.5693V41.3884C28.5693 39.8067 29.8393 38.5243 31.4061 38.5243C32.9731 38.5243 34.2431 39.8067 34.2431 41.3884V47.1488H37.46V41.3847H37.4599Z" fill="#F87304"/>
</svg>
