<svg width="1366" height="588" viewBox="0 0 1366 588" fill="none" xmlns="http://www.w3.org/2000/svg">
<g clip-path="url(#clip0_1376_1234)">
<g opacity="0.4">
<path fill-rule="evenodd" clip-rule="evenodd" d="M645.472 14.0009C643.039 14.0414 639.912 15.1294 639.881 19.2985C639.852 23.4675 644.168 32.3467 643.929 52.7231C643.681 73.8942 638.83 88.2925 609.271 124.512L492.1 268.085C424.299 351.165 378.213 389.049 378.001 479.677C377.789 570.304 424.335 614.589 492.149 669.175C559.964 723.761 647.814 794.629 716.156 850.14C717.707 851.4 719.64 852.738 722.073 852.698C724.506 852.657 727.634 851.569 727.664 847.4C727.693 843.231 723.03 839.137 723.269 818.761C723.518 797.589 725.574 784.857 755.316 748.787L878.345 599.58C946.566 516.844 988.787 479.847 988.999 390.304C989.211 300.76 942.272 251.865 882.183 205.257C803.137 143.946 711.26 66.6414 651.39 16.5589C649.857 15.2767 647.906 13.9604 645.472 14.0009Z" fill="#B1B1B1"/>
<path fill-rule="evenodd" clip-rule="evenodd" d="M544.002 320.971V357.862H648.223V598.49C648.223 632.274 672.295 647.684 695.874 647.684C719.454 647.684 734.41 639.831 734.41 639.831C734.41 639.831 720.03 628.19 719.968 576.449C719.908 526.268 719.963 368.033 719.968 345.714C719.974 323.396 693.956 283.21 651.146 283.21L584.982 283.21C563.296 283.21 544.002 300.872 544.002 320.971ZM697.063 283.21C695.696 283.21 694.597 284.31 694.597 285.676C694.597 287.043 695.968 288.057 697.063 288.875C701.602 292.262 715.749 302.291 722.504 316.013C729.26 329.735 729.421 342.187 733.81 349.38C738.2 356.573 745.363 357.862 752.939 357.862H807.408C819.444 357.862 824.174 349.773 824.174 340.178V283.21H697.063Z" fill="black"/>
</g>
</g>
<defs>
<clipPath id="clip0_1376_1234">
<rect width="1366" height="588" fill="white"/>
</clipPath>
</defs>
</svg>
